<svg width="18" height="19" viewBox="0 0 18 19" fill="none" xmlns="http://www.w3.org/2000/svg">
<path d="M17.184 9.65051C17.1926 9.00994 16.8367 8.42121 16.2588 8.11221L2.79123 0.897729C2.18801 0.565332 1.47693 0.606169 0.908522 0.984602C0.329691 1.36941 0.0334191 2.28545 0.195229 2.94706L1.45248 8.08279C1.58155 8.60942 2.06496 8.98023 2.62111 8.97791L10.1158 8.95524C10.4996 8.94774 10.8108 9.25121 10.8031 9.62541C10.802 9.99325 10.4953 10.2923 10.1115 10.2998L2.6097 10.3167C2.05355 10.3178 1.56777 10.6903 1.43535 11.2177L0.133641 16.3738C-0.0244083 16.9831 0.155785 17.5914 0.596729 18.0213C0.648604 18.0719 0.706965 18.1288 0.765365 18.173C1.3364 18.6026 2.08425 18.6574 2.72276 18.3257L16.236 11.1818C16.8159 10.882 17.1755 10.2911 17.184 9.65051Z" fill="black"/>
</svg>
